# xmcd
#
# Track frame offsets: 
#        150
#        36517
#        52714
#        83281
#        108563
#        126551
#        157459
#        189133
#        212839
#        236753
#
# Disc length: 3416 seconds
#
# Revision: 0
# Processed by: cddbd v1.5.1PL0 Copyright (c) Steve Scherf et al.
# Submitted via: ExactAudioCopy v0.95b1
#
DISCID=870d560a
DTITLE=Teresa Russell and Cocobilli - Live 1
DYEAR=2000
DGENRE=Blues
TTITLE0=Still Got The Blues
TTITLE1=Love Me Like A Man
TTITLE2=Red House
TTITLE3=Johnny B. Goode
TTITLE4=Let Me Love You
TTITLE5=Let's Have A Party
TTITLE6=Thing Called Love
TTITLE7=Piece Of My Heart
TTITLE8=Give Me One Reason
TTITLE9=That's Alright Mama
EXTD=
EXTT0=
EXTT1=
EXTT2=
EXTT3=
EXTT4=
EXTT5=
EXTT6=
EXTT7=
EXTT8=
EXTT9=
PLAYORDER=
